<?xml version="1.0" encoding="UTF-8" standalone="no"?>
<!-- Created with Inkscape (http://www.inkscape.org/) -->

<svg
   width="134.81502mm"
   height="134.73441mm"
   viewBox="0 0 134.81502 134.73441"
   version="1.1"
   id="svg5"
   xmlns="http://www.w3.org/2000/svg"
   xmlns:svg="http://www.w3.org/2000/svg">
  <defs
     id="defs2">
    <filter
       id="mask-powermask-path-effect1520_inverse"
       style="color-interpolation-filters:sRGB"
       height="100"
       width="100"
       x="-50"
       y="-50">
      <feColorMatrix
         id="mask-powermask-path-effect1520_primitive1"
         values="1"
         type="saturate"
         result="fbSourceGraphic" />
      <feColorMatrix
         id="mask-powermask-path-effect1520_primitive2"
         values="-1 0 0 0 1 0 -1 0 0 1 0 0 -1 0 1 0 0 0 1 0 "
         in="fbSourceGraphic" />
    </filter>
  </defs>
  <g
     id="layer1"
     style="opacity:1"
     transform="translate(-7.9995116,-103.81743)">
    <path
       id="path846"
       style="fill:#000000;stroke-width:1.91729"
       d="m 291,392.38086 v 137.30273 a 117.8709,117.8709 0 0 1 72.98242,29.84766 l 97.0293,-97.0293 a 255,255 0 0 0 -72.86719,-48.5 l -20.03125,48.35938 -11.0918,-4.59375 20.0254,-48.34766 A 255,255 0 0 0 291,392.38086 Z m -12,0.0195 a 255,255 0 0 0 -85.47266,17.74609 l 19.09961,46.10938 -11.09179,4.5957 -19.09375,-46.0957 a 255,255 0 0 0 -73.05079,48.14648 l 96.92188,96.92383 A 117.8709,117.8709 0 0 1 279,529.71289 Z m 190.49805,78.58789 -97.0293,97.0293 A 117.8709,117.8709 0 0 1 402.55469,641 h 137.21679 a 255,255 0 0 0 -16.625,-84.8418 l -49.40429,20.46485 -4.59571,-11.0918 49.45313,-20.48437 a 255,255 0 0 0 -49.10156,-74.0586 z m -368.59571,0.40234 A 255,255 0 0 0 52.671875,542.957 l 45.693359,18.92774 -4.59375,11.09179 -45.755859,-18.95312 A 255,255 0 0 0 30.248047,641 H 167.47656 a 117.8709,117.8709 0 0 1 30.34961,-72.6875 z M 30.234375,653 a 255,255 0 0 0 16.134766,83.38086 l 45.892578,-19.00977 4.59375,11.0918 -45.982422,19.04688 a 255,255 0 0 0 49.738283,75.39257 l 97.03515,-97.03515 A 117.8709,117.8709 0 0 1 167.45703,653 Z m 372.316405,0 a 117.8709,117.8709 0 0 1 -30.11133,72.95312 l 96.65821,96.65626 a 255,255 0 0 0 47.61328,-70.17383 l -49.07422,-20.32617 4.59375,-11.0918 49.19141,20.375 A 255,255 0 0 0 539.75195,653 Z m -196.41797,81.35352 -97.03515,97.03515 a 255,255 0 0 0 69.41601,47.01758 l 19.375,-46.77344 11.0918,4.59375 -19.43555,46.92383 A 255,255 0 0 0 279,901.61328 V 764.30469 a 117.8709,117.8709 0 0 1 -72.86719,-29.95117 z m 157.82031,0.0859 A 117.8709,117.8709 0 0 1 291,764.31445 v 137.28516 a 255,255 0 0 0 82.25,-15.88086 l -19.875,-47.98047 11.0918,-4.5957 19.93359,48.125 a 255,255 0 0 0 76.20899,-50.16992 z"
       transform="scale(0.26458333)" />
  </g>
</svg>
